# xmcd
#
# Track frame offsets:
#	151
#	20406
#	38051
#	51026
#	67417
#	84732
#	97964
#	113248
#	133688
#	154268
#	172938
#	186480
#	208537
#	224771
#	240260
#	262154
#	277819
#	291449
#	307591
#	327487
#	346215
#
# Disc length: 4784 seconds
#
# Revision: 0
# Processed by: cddbd v1.5.2PL0 Copyright (c) Steve Scherf et al.
# Submitted via: EZCDAudioConverter 2.1.7.1
#
DISCID=3c12ae15
DTITLE=Shania Twain - Limited Edition
DYEAR=2004
DGENRE=
TTITLE0=I'm Gonna Getcha Good\n
TTITLE1=Man Feel Like A Woman\n
TTITLE2=UPI\n
TTITLE3=That Don't Impress Me Much\n
TTITLE4=Juanita\n
TTITLE5=Come On Over\n
TTITLE6=Forget Me\n
TTITLE7=I'm Outta Here\n
TTITLE8=(Wanna Get To Know You) That Good\n
TTITLE9=I Want Leave You Lonely\n
TTITLE10=What Made You Say That\n
TTITLE11=From This Moment On\n
TTITLE12=Don't Be Stupid (You Know I Love You]\n
TTITLE13=I'm Not In The Mood (To Say No]\n
TTITLE14=The Woman In Me (Needs The Man In You]\n
TTITLE15=I'm Holding On To Love (To Save Me Love]\n
TTITLE16=No One Needs To Know\n
TTITLE17=Love Gets My Every Time\n
TTITLE18=Rock This Country\n
TTITLE19=Any Man Of Me\n
TTITLE20=God Aint Gonna Getcha For That\n
EXTD=
EXTT0=
EXTT1=
EXTT2=
EXTT3=
EXTT4=
EXTT5=
EXTT6=
EXTT7=
EXTT8=
EXTT9=
EXTT10=
EXTT11=
EXTT12=
EXTT13=
EXTT14=
EXTT15=
EXTT16=
EXTT17=
EXTT18=
EXTT19=
EXTT20=
PLAYORDER=
